<mxfile host="Electron" modified="2023-10-07T13:28:12.939Z" agent="Mozilla/5.0 (Windows NT 10.0; Win64; x64) AppleWebKit/537.36 (KHTML, like Gecko) draw.io/22.0.2 Chrome/114.0.5735.289 Electron/25.8.4 Safari/537.36" etag="y89lYt-EnVE9Kbmr8znT" version="22.0.2" type="device">
  <diagram name="Страница — 1" id="5SUFri3_oyrJFjKi7RFm">
    <mxGraphModel dx="8172" dy="4139" grid="1" gridSize="10" guides="1" tooltips="1" connect="1" arrows="1" fold="1" page="1" pageScale="1" pageWidth="827" pageHeight="1169" math="0" shadow="0">
      <root>
        <mxCell id="0" />
        <mxCell id="1" parent="0" />
        <mxCell id="whawKiYYTOcF4N3wU9ud-7" style="rounded=0;orthogonalLoop=1;jettySize=auto;html=1;dashed=1;dashPattern=12 12;" parent="1" source="whawKiYYTOcF4N3wU9ud-3" target="whawKiYYTOcF4N3wU9ud-4" edge="1">
          <mxGeometry relative="1" as="geometry" />
        </mxCell>
        <mxCell id="whawKiYYTOcF4N3wU9ud-10" value="Отправить сообщение" style="edgeLabel;html=1;align=center;verticalAlign=middle;resizable=0;points=[];" parent="whawKiYYTOcF4N3wU9ud-7" vertex="1" connectable="0">
          <mxGeometry x="0.0699" y="-2" relative="1" as="geometry">
            <mxPoint as="offset" />
          </mxGeometry>
        </mxCell>
        <mxCell id="whawKiYYTOcF4N3wU9ud-8" style="rounded=0;orthogonalLoop=1;jettySize=auto;html=1;dashed=1;dashPattern=12 12;" parent="1" source="whawKiYYTOcF4N3wU9ud-3" target="whawKiYYTOcF4N3wU9ud-5" edge="1">
          <mxGeometry relative="1" as="geometry" />
        </mxCell>
        <mxCell id="whawKiYYTOcF4N3wU9ud-11" value="Отправить мультиплекс" style="edgeLabel;html=1;align=center;verticalAlign=middle;resizable=0;points=[];" parent="whawKiYYTOcF4N3wU9ud-8" vertex="1" connectable="0">
          <mxGeometry x="0.01" relative="1" as="geometry">
            <mxPoint as="offset" />
          </mxGeometry>
        </mxCell>
        <mxCell id="whawKiYYTOcF4N3wU9ud-9" style="rounded=0;orthogonalLoop=1;jettySize=auto;html=1;dashed=1;dashPattern=12 12;entryX=0.5;entryY=0;entryDx=0;entryDy=0;entryPerimeter=0;" parent="1" source="whawKiYYTOcF4N3wU9ud-3" target="whawKiYYTOcF4N3wU9ud-6" edge="1">
          <mxGeometry relative="1" as="geometry" />
        </mxCell>
        <mxCell id="whawKiYYTOcF4N3wU9ud-12" value="Изменить настройки&lt;br&gt;пользователя" style="edgeLabel;html=1;align=center;verticalAlign=middle;resizable=0;points=[];" parent="whawKiYYTOcF4N3wU9ud-9" vertex="1" connectable="0">
          <mxGeometry x="-0.0162" y="1" relative="1" as="geometry">
            <mxPoint as="offset" />
          </mxGeometry>
        </mxCell>
        <object c4Name="Существующие компоненты системы" c4Type="Software System" c4Description="которые хотят отправить оповещение" label="&lt;font style=&quot;font-size: 16px&quot;&gt;&lt;b&gt;%c4Name%&lt;/b&gt;&lt;/font&gt;&lt;div&gt;[%c4Type%]&lt;/div&gt;&lt;br&gt;&lt;div&gt;&lt;font style=&quot;font-size: 11px&quot;&gt;&lt;font color=&quot;#cccccc&quot;&gt;%c4Description%&lt;/font&gt;&lt;/div&gt;" placeholders="1" id="whawKiYYTOcF4N3wU9ud-3">
          <mxCell style="rounded=1;whiteSpace=wrap;html=1;labelBackgroundColor=none;fillColor=#8C8496;fontColor=#ffffff;align=center;arcSize=10;strokeColor=#736782;metaEdit=1;resizable=0;points=[[0.25,0,0],[0.5,0,0],[0.75,0,0],[1,0.25,0],[1,0.5,0],[1,0.75,0],[0.75,1,0],[0.5,1,0],[0.25,1,0],[0,0.75,0],[0,0.5,0],[0,0.25,0]];" parent="1" vertex="1">
            <mxGeometry x="10" y="-170" width="240" height="120" as="geometry" />
          </mxCell>
        </object>
        <mxCell id="whawKiYYTOcF4N3wU9ud-14" style="rounded=0;orthogonalLoop=1;jettySize=auto;html=1;dashed=1;dashPattern=12 12;" parent="1" source="whawKiYYTOcF4N3wU9ud-4" target="whawKiYYTOcF4N3wU9ud-13" edge="1">
          <mxGeometry relative="1" as="geometry" />
        </mxCell>
        <object placeholders="1" c4Name="Контроллер отправки сообщения пользователю" c4Type="Component" c4Technology="e.g. Spring Rest Controller" c4Description="Принимает id пользоавтеля и сообщение" label="&lt;font style=&quot;font-size: 16px&quot;&gt;&lt;b&gt;%c4Name%&lt;/b&gt;&lt;/font&gt;&lt;div&gt;[%c4Type%: %c4Technology%]&lt;/div&gt;&lt;br&gt;&lt;div&gt;&lt;font style=&quot;font-size: 11px&quot;&gt;%c4Description%&lt;/font&gt;&lt;/div&gt;" id="whawKiYYTOcF4N3wU9ud-4">
          <mxCell style="rounded=1;whiteSpace=wrap;html=1;labelBackgroundColor=none;fillColor=#63BEF2;fontColor=#ffffff;align=center;arcSize=6;strokeColor=#2086C9;metaEdit=1;resizable=0;points=[[0.25,0,0],[0.5,0,0],[0.75,0,0],[1,0.25,0],[1,0.5,0],[1,0.75,0],[0.75,1,0],[0.5,1,0],[0.25,1,0],[0,0.75,0],[0,0.5,0],[0,0.25,0]];" parent="1" vertex="1">
            <mxGeometry y="240" width="240" height="120" as="geometry" />
          </mxCell>
        </object>
        <object placeholders="1" c4Name="Контроллер отправки мультиплекс сообщения" c4Type="Component" c4Technology="e.g. Spring Rest Controller" c4Description="Принимает идентификатор группы и сообщение" label="&lt;font style=&quot;font-size: 16px&quot;&gt;&lt;b&gt;%c4Name%&lt;/b&gt;&lt;/font&gt;&lt;div&gt;[%c4Type%: %c4Technology%]&lt;/div&gt;&lt;br&gt;&lt;div&gt;&lt;font style=&quot;font-size: 11px&quot;&gt;%c4Description%&lt;/font&gt;&lt;/div&gt;" id="whawKiYYTOcF4N3wU9ud-5">
          <mxCell style="rounded=1;whiteSpace=wrap;html=1;labelBackgroundColor=none;fillColor=#63BEF2;fontColor=#ffffff;align=center;arcSize=6;strokeColor=#2086C9;metaEdit=1;resizable=0;points=[[0.25,0,0],[0.5,0,0],[0.75,0,0],[1,0.25,0],[1,0.5,0],[1,0.75,0],[0.75,1,0],[0.5,1,0],[0.25,1,0],[0,0.75,0],[0,0.5,0],[0,0.25,0]];" parent="1" vertex="1">
            <mxGeometry x="360" y="240" width="240" height="120" as="geometry" />
          </mxCell>
        </object>
        <mxCell id="LyJyI9hUQbaoJRPsF4Ac-29" style="edgeStyle=orthogonalEdgeStyle;rounded=0;orthogonalLoop=1;jettySize=auto;html=1;dashed=1;dashPattern=12 12;" edge="1" parent="1" source="whawKiYYTOcF4N3wU9ud-6" target="LyJyI9hUQbaoJRPsF4Ac-27">
          <mxGeometry relative="1" as="geometry" />
        </mxCell>
        <object placeholders="1" c4Name="Контроллер редактирования настроек пользователя" c4Type="Component" c4Technology="e.g. Spring Rest Controller" c4Description="Содержит методы для редактирвоания настроек пользовательских предпочтений" label="&lt;font style=&quot;font-size: 16px&quot;&gt;&lt;b&gt;%c4Name%&lt;/b&gt;&lt;/font&gt;&lt;div&gt;[%c4Type%: %c4Technology%]&lt;/div&gt;&lt;br&gt;&lt;div&gt;&lt;font style=&quot;font-size: 11px&quot;&gt;%c4Description%&lt;/font&gt;&lt;/div&gt;" id="whawKiYYTOcF4N3wU9ud-6">
          <mxCell style="rounded=1;whiteSpace=wrap;html=1;labelBackgroundColor=none;fillColor=#63BEF2;fontColor=#ffffff;align=center;arcSize=6;strokeColor=#2086C9;metaEdit=1;resizable=0;points=[[0.25,0,0],[0.5,0,0],[0.75,0,0],[1,0.25,0],[1,0.5,0],[1,0.75,0],[0.75,1,0],[0.5,1,0],[0.25,1,0],[0,0.75,0],[0,0.5,0],[0,0.25,0]];" parent="1" vertex="1">
            <mxGeometry x="-360" y="240" width="240" height="120" as="geometry" />
          </mxCell>
        </object>
        <mxCell id="whawKiYYTOcF4N3wU9ud-16" style="rounded=0;orthogonalLoop=1;jettySize=auto;html=1;dashed=1;dashPattern=12 12;" parent="1" source="whawKiYYTOcF4N3wU9ud-13" target="whawKiYYTOcF4N3wU9ud-15" edge="1">
          <mxGeometry relative="1" as="geometry" />
        </mxCell>
        <mxCell id="whawKiYYTOcF4N3wU9ud-17" value="1. Получить настройки пользователя" style="edgeLabel;html=1;align=center;verticalAlign=middle;resizable=0;points=[];" parent="whawKiYYTOcF4N3wU9ud-16" vertex="1" connectable="0">
          <mxGeometry x="0.0453" y="1" relative="1" as="geometry">
            <mxPoint x="118" y="-275" as="offset" />
          </mxGeometry>
        </mxCell>
        <mxCell id="LyJyI9hUQbaoJRPsF4Ac-2" style="rounded=0;orthogonalLoop=1;jettySize=auto;html=1;dashed=1;dashPattern=12 12;entryX=0.018;entryY=0.61;entryDx=0;entryDy=0;entryPerimeter=0;" edge="1" parent="1" source="whawKiYYTOcF4N3wU9ud-13" target="LyJyI9hUQbaoJRPsF4Ac-1">
          <mxGeometry relative="1" as="geometry" />
        </mxCell>
        <mxCell id="LyJyI9hUQbaoJRPsF4Ac-3" value="2. Добавить сообщение в очередь" style="edgeLabel;html=1;align=center;verticalAlign=middle;resizable=0;points=[];" vertex="1" connectable="0" parent="LyJyI9hUQbaoJRPsF4Ac-2">
          <mxGeometry x="-0.5138" y="-2" relative="1" as="geometry">
            <mxPoint x="-14" y="-66" as="offset" />
          </mxGeometry>
        </mxCell>
        <object placeholders="1" c4Name="Сервис отправки сообщения/сообщений" c4Type="Component" c4Technology="e.g. Spring Bean" c4Description="Читает пользовательские предпочтения в БД, отправляет соответствующие сообещния в очередь" label="&lt;font style=&quot;font-size: 16px&quot;&gt;&lt;b&gt;%c4Name%&lt;/b&gt;&lt;/font&gt;&lt;div&gt;[%c4Type%: %c4Technology%]&lt;/div&gt;&lt;br&gt;&lt;div&gt;&lt;font style=&quot;font-size: 11px&quot;&gt;%c4Description%&lt;/font&gt;&lt;/div&gt;" id="whawKiYYTOcF4N3wU9ud-13">
          <mxCell style="rounded=1;whiteSpace=wrap;html=1;labelBackgroundColor=none;fillColor=#63BEF2;fontColor=#ffffff;align=center;arcSize=6;strokeColor=#2086C9;metaEdit=1;resizable=0;points=[[0.25,0,0],[0.5,0,0],[0.75,0,0],[1,0.25,0],[1,0.5,0],[1,0.75,0],[0.75,1,0],[0.5,1,0],[0.25,1,0],[0,0.75,0],[0,0.5,0],[0,0.25,0]];" parent="1" vertex="1">
            <mxGeometry y="440" width="240" height="120" as="geometry" />
          </mxCell>
        </object>
        <object placeholders="1" c4Type="База данных" c4Container="DB" c4Technology="PostgreSQL 12" c4Description="Хранит связь пользователей с настройками оповещений" label="&lt;font style=&quot;font-size: 16px&quot;&gt;&lt;b&gt;%c4Type%&lt;/b&gt;&lt;/font&gt;&lt;div&gt;[%c4Container%:&amp;nbsp;%c4Technology%]&lt;/div&gt;&lt;br&gt;&lt;div&gt;&lt;font style=&quot;font-size: 11px&quot;&gt;&lt;font color=&quot;#E6E6E6&quot;&gt;%c4Description%&lt;/font&gt;&lt;/div&gt;" id="whawKiYYTOcF4N3wU9ud-15">
          <mxCell style="shape=cylinder3;size=15;whiteSpace=wrap;html=1;boundedLbl=1;rounded=0;labelBackgroundColor=none;fillColor=#23A2D9;fontSize=12;fontColor=#ffffff;align=center;strokeColor=#0E7DAD;metaEdit=1;points=[[0.5,0,0],[1,0.25,0],[1,0.5,0],[1,0.75,0],[0.5,1,0],[0,0.75,0],[0,0.5,0],[0,0.25,0]];resizable=0;" parent="1" vertex="1">
            <mxGeometry x="-440" y="1314" width="240" height="120" as="geometry" />
          </mxCell>
        </object>
        <object placeholders="1" c4Type="Брокер сообщений" c4Container="Container" c4Technology="Apache Kafka" c4Description="Хранит очередь оповещений" label="&lt;font style=&quot;font-size: 16px&quot;&gt;&lt;b&gt;%c4Type%&lt;/b&gt;&lt;/font&gt;&lt;div&gt;[%c4Container%:&amp;nbsp;%c4Technology%]&lt;/div&gt;&lt;br&gt;&lt;div&gt;&lt;font style=&quot;font-size: 11px&quot;&gt;&lt;font color=&quot;#E6E6E6&quot;&gt;%c4Description%&lt;/font&gt;&lt;/div&gt;" id="LyJyI9hUQbaoJRPsF4Ac-1">
          <mxCell style="shape=cylinder3;size=15;direction=south;whiteSpace=wrap;html=1;boundedLbl=1;rounded=0;labelBackgroundColor=none;fillColor=#23A2D9;fontSize=12;fontColor=#ffffff;align=center;strokeColor=#0E7DAD;metaEdit=1;points=[[0.5,0,0],[1,0.25,0],[1,0.5,0],[1,0.75,0],[0.5,1,0],[0,0.75,0],[0,0.5,0],[0,0.25,0]];resizable=0;" vertex="1" parent="1">
            <mxGeometry x="450" y="1320" width="240" height="120" as="geometry" />
          </mxCell>
        </object>
        <mxCell id="LyJyI9hUQbaoJRPsF4Ac-7" style="rounded=0;orthogonalLoop=1;jettySize=auto;html=1;dashed=1;dashPattern=12 12;entryX=1.018;entryY=0.31;entryDx=0;entryDy=0;entryPerimeter=0;exitX=0.475;exitY=-0.006;exitDx=0;exitDy=0;exitPerimeter=0;" edge="1" parent="1" source="LyJyI9hUQbaoJRPsF4Ac-43" target="LyJyI9hUQbaoJRPsF4Ac-1">
          <mxGeometry relative="1" as="geometry">
            <mxPoint x="871.5999999999995" y="1787.8400000000001" as="sourcePoint" />
            <mxPoint x="569.9999999999999" y="974" as="targetPoint" />
          </mxGeometry>
        </mxCell>
        <mxCell id="LyJyI9hUQbaoJRPsF4Ac-8" value="Читает топик с &lt;br&gt;Push сообщениями" style="edgeLabel;html=1;align=center;verticalAlign=middle;resizable=0;points=[];" vertex="1" connectable="0" parent="LyJyI9hUQbaoJRPsF4Ac-7">
          <mxGeometry x="-0.4979" y="-1" relative="1" as="geometry">
            <mxPoint x="-41" y="-22" as="offset" />
          </mxGeometry>
        </mxCell>
        <mxCell id="LyJyI9hUQbaoJRPsF4Ac-9" style="rounded=0;orthogonalLoop=1;jettySize=auto;html=1;dashed=1;dashPattern=12 12;entryX=1;entryY=0.542;entryDx=0;entryDy=0;entryPerimeter=0;" edge="1" parent="1" target="LyJyI9hUQbaoJRPsF4Ac-1">
          <mxGeometry relative="1" as="geometry">
            <mxPoint x="430" y="940" as="targetPoint" />
            <mxPoint x="560" y="1700" as="sourcePoint" />
          </mxGeometry>
        </mxCell>
        <mxCell id="LyJyI9hUQbaoJRPsF4Ac-10" value="Читает топик с &lt;br&gt;SMS сообещниями" style="edgeLabel;html=1;align=center;verticalAlign=middle;resizable=0;points=[];" vertex="1" connectable="0" parent="LyJyI9hUQbaoJRPsF4Ac-9">
          <mxGeometry x="0.144" y="-1" relative="1" as="geometry">
            <mxPoint x="-1" y="10" as="offset" />
          </mxGeometry>
        </mxCell>
        <mxCell id="LyJyI9hUQbaoJRPsF4Ac-13" style="rounded=0;orthogonalLoop=1;jettySize=auto;html=1;entryX=1.014;entryY=0.929;entryDx=0;entryDy=0;entryPerimeter=0;dashed=1;dashPattern=12 12;" edge="1" parent="1" source="LyJyI9hUQbaoJRPsF4Ac-48" target="LyJyI9hUQbaoJRPsF4Ac-1">
          <mxGeometry relative="1" as="geometry">
            <mxPoint x="-270" y="1800" as="sourcePoint" />
            <mxPoint x="320" y="890" as="targetPoint" />
          </mxGeometry>
        </mxCell>
        <mxCell id="LyJyI9hUQbaoJRPsF4Ac-14" value="Читает топик с &lt;br&gt;Email сообщениями" style="edgeLabel;html=1;align=center;verticalAlign=middle;resizable=0;points=[];" vertex="1" connectable="0" parent="LyJyI9hUQbaoJRPsF4Ac-13">
          <mxGeometry x="-0.4389" y="2" relative="1" as="geometry">
            <mxPoint x="38" y="-25" as="offset" />
          </mxGeometry>
        </mxCell>
        <mxCell id="LyJyI9hUQbaoJRPsF4Ac-17" style="rounded=0;orthogonalLoop=1;jettySize=auto;html=1;dashed=1;dashPattern=12 12;entryX=-0.025;entryY=0.522;entryDx=0;entryDy=0;entryPerimeter=0;" edge="1" parent="1" source="LyJyI9hUQbaoJRPsF4Ac-15" target="LyJyI9hUQbaoJRPsF4Ac-1">
          <mxGeometry relative="1" as="geometry">
            <mxPoint x="860" y="1140" as="targetPoint" />
          </mxGeometry>
        </mxCell>
        <mxCell id="LyJyI9hUQbaoJRPsF4Ac-18" value="Добавляет в очередь данные&lt;br&gt;о сообщении" style="edgeLabel;html=1;align=center;verticalAlign=middle;resizable=0;points=[];" vertex="1" connectable="0" parent="LyJyI9hUQbaoJRPsF4Ac-17">
          <mxGeometry x="-0.307" y="-2" relative="1" as="geometry">
            <mxPoint as="offset" />
          </mxGeometry>
        </mxCell>
        <object placeholders="1" c4Name="Сервис отправки мультиплекс сообщения" c4Type="Component" c4Technology="e.g. Spring Bean" c4Description="Читает пользовательские предпочтения в БД, отправляет соответствующие сообещния в очередь" label="&lt;font style=&quot;font-size: 16px&quot;&gt;&lt;b&gt;%c4Name%&lt;/b&gt;&lt;/font&gt;&lt;div&gt;[%c4Type%: %c4Technology%]&lt;/div&gt;&lt;br&gt;&lt;div&gt;&lt;font style=&quot;font-size: 11px&quot;&gt;%c4Description%&lt;/font&gt;&lt;/div&gt;" id="LyJyI9hUQbaoJRPsF4Ac-15">
          <mxCell style="rounded=1;whiteSpace=wrap;html=1;labelBackgroundColor=none;fillColor=#63BEF2;fontColor=#ffffff;align=center;arcSize=6;strokeColor=#2086C9;metaEdit=1;resizable=0;points=[[0.25,0,0],[0.5,0,0],[0.75,0,0],[1,0.25,0],[1,0.5,0],[1,0.75,0],[0.75,1,0],[0.5,1,0],[0.25,1,0],[0,0.75,0],[0,0.5,0],[0,0.25,0]];" vertex="1" parent="1">
            <mxGeometry x="360" y="440" width="240" height="120" as="geometry" />
          </mxCell>
        </object>
        <mxCell id="LyJyI9hUQbaoJRPsF4Ac-16" style="rounded=0;orthogonalLoop=1;jettySize=auto;html=1;dashed=1;dashPattern=12 12;exitX=0.475;exitY=0.983;exitDx=0;exitDy=0;exitPerimeter=0;entryX=0.475;entryY=0.025;entryDx=0;entryDy=0;entryPerimeter=0;" edge="1" parent="1" source="whawKiYYTOcF4N3wU9ud-5" target="LyJyI9hUQbaoJRPsF4Ac-15">
          <mxGeometry relative="1" as="geometry">
            <mxPoint x="130" y="410" as="sourcePoint" />
            <mxPoint x="130" y="510" as="targetPoint" />
          </mxGeometry>
        </mxCell>
        <mxCell id="LyJyI9hUQbaoJRPsF4Ac-22" style="rounded=0;orthogonalLoop=1;jettySize=auto;html=1;dashed=1;dashPattern=12 12;" edge="1" parent="1" source="LyJyI9hUQbaoJRPsF4Ac-19" target="whawKiYYTOcF4N3wU9ud-13">
          <mxGeometry relative="1" as="geometry" />
        </mxCell>
        <mxCell id="LyJyI9hUQbaoJRPsF4Ac-23" value="3. Отправить сообщение &lt;br&gt;для пачки пользогвателей" style="edgeLabel;html=1;align=center;verticalAlign=middle;resizable=0;points=[];" vertex="1" connectable="0" parent="LyJyI9hUQbaoJRPsF4Ac-22">
          <mxGeometry x="-0.3953" y="1" relative="1" as="geometry">
            <mxPoint as="offset" />
          </mxGeometry>
        </mxCell>
        <mxCell id="LyJyI9hUQbaoJRPsF4Ac-25" style="rounded=0;orthogonalLoop=1;jettySize=auto;html=1;dashed=1;dashPattern=12 12;" edge="1" parent="1" source="LyJyI9hUQbaoJRPsF4Ac-19" target="LyJyI9hUQbaoJRPsF4Ac-1">
          <mxGeometry relative="1" as="geometry" />
        </mxCell>
        <mxCell id="LyJyI9hUQbaoJRPsF4Ac-26" value="4. Добавить сообщение об &lt;br&gt;отправке следующией пачки" style="edgeLabel;html=1;align=center;verticalAlign=middle;resizable=0;points=[];" vertex="1" connectable="0" parent="LyJyI9hUQbaoJRPsF4Ac-25">
          <mxGeometry x="-0.1287" y="-3" relative="1" as="geometry">
            <mxPoint as="offset" />
          </mxGeometry>
        </mxCell>
        <object placeholders="1" c4Name="Consumer сообщения об отправке пачки сообщений" c4Type="Component" c4Technology="e.g. Spring Bean" c4Description="Получает сообщение и последний обработанный id пользователя (или null если первая пачка)" label="&lt;font style=&quot;font-size: 16px&quot;&gt;&lt;b&gt;%c4Name%&lt;/b&gt;&lt;/font&gt;&lt;div&gt;[%c4Type%: %c4Technology%]&lt;/div&gt;&lt;br&gt;&lt;div&gt;&lt;font style=&quot;font-size: 11px&quot;&gt;%c4Description%&lt;/font&gt;&lt;/div&gt;" id="LyJyI9hUQbaoJRPsF4Ac-19">
          <mxCell style="rounded=1;whiteSpace=wrap;html=1;labelBackgroundColor=none;fillColor=#63BEF2;fontColor=#ffffff;align=center;arcSize=6;strokeColor=#2086C9;metaEdit=1;resizable=0;points=[[0.25,0,0],[0.5,0,0],[0.75,0,0],[1,0.25,0],[1,0.5,0],[1,0.75,0],[0.75,1,0],[0.5,1,0],[0.25,1,0],[0,0.75,0],[0,0.5,0],[0,0.25,0]];" vertex="1" parent="1">
            <mxGeometry y="860" width="240" height="120" as="geometry" />
          </mxCell>
        </object>
        <mxCell id="LyJyI9hUQbaoJRPsF4Ac-20" style="rounded=0;orthogonalLoop=1;jettySize=auto;html=1;entryX=0.963;entryY=0.096;entryDx=0;entryDy=0;entryPerimeter=0;dashed=1;dashPattern=12 12;" edge="1" parent="1" source="LyJyI9hUQbaoJRPsF4Ac-19" target="whawKiYYTOcF4N3wU9ud-15">
          <mxGeometry relative="1" as="geometry" />
        </mxCell>
        <mxCell id="LyJyI9hUQbaoJRPsF4Ac-21" value="2. Запросить отсортированные &lt;br&gt;идентификаторы пользователей" style="edgeLabel;html=1;align=center;verticalAlign=middle;resizable=0;points=[];" vertex="1" connectable="0" parent="LyJyI9hUQbaoJRPsF4Ac-20">
          <mxGeometry x="-0.2659" y="1" relative="1" as="geometry">
            <mxPoint as="offset" />
          </mxGeometry>
        </mxCell>
        <mxCell id="LyJyI9hUQbaoJRPsF4Ac-28" style="rounded=0;orthogonalLoop=1;jettySize=auto;html=1;dashed=1;dashPattern=12 12;" edge="1" parent="1" source="LyJyI9hUQbaoJRPsF4Ac-27" target="whawKiYYTOcF4N3wU9ud-15">
          <mxGeometry relative="1" as="geometry" />
        </mxCell>
        <mxCell id="LyJyI9hUQbaoJRPsF4Ac-30" value="Записать или прочитать&lt;br&gt;данные пользователя" style="edgeLabel;html=1;align=center;verticalAlign=middle;resizable=0;points=[];" vertex="1" connectable="0" parent="LyJyI9hUQbaoJRPsF4Ac-28">
          <mxGeometry x="-0.3976" y="-1" relative="1" as="geometry">
            <mxPoint as="offset" />
          </mxGeometry>
        </mxCell>
        <object placeholders="1" c4Name="Сервис работы с данными пользователя" c4Type="Component" c4Technology="e.g. Spring Bean" c4Description="" label="&lt;font style=&quot;font-size: 16px&quot;&gt;&lt;b&gt;%c4Name%&lt;/b&gt;&lt;/font&gt;&lt;div&gt;[%c4Type%: %c4Technology%]&lt;/div&gt;&lt;br&gt;&lt;div&gt;&lt;font style=&quot;font-size: 11px&quot;&gt;%c4Description%&lt;/font&gt;&lt;/div&gt;" id="LyJyI9hUQbaoJRPsF4Ac-27">
          <mxCell style="rounded=1;whiteSpace=wrap;html=1;labelBackgroundColor=none;fillColor=#63BEF2;fontColor=#ffffff;align=center;arcSize=6;strokeColor=#2086C9;metaEdit=1;resizable=0;points=[[0.25,0,0],[0.5,0,0],[0.75,0,0],[1,0.25,0],[1,0.5,0],[1,0.75,0],[0.75,1,0],[0.5,1,0],[0.25,1,0],[0,0.75,0],[0,0.5,0],[0,0.25,0]];" vertex="1" parent="1">
            <mxGeometry x="-360" y="440" width="240" height="120" as="geometry" />
          </mxCell>
        </object>
        <mxCell id="LyJyI9hUQbaoJRPsF4Ac-31" style="rounded=0;orthogonalLoop=1;jettySize=auto;html=1;entryX=0.5;entryY=1;entryDx=0;entryDy=0;entryPerimeter=0;dashed=1;dashPattern=12 12;exitX=0.52;exitY=1.005;exitDx=0;exitDy=0;exitPerimeter=0;edgeStyle=orthogonalEdgeStyle;" edge="1" parent="1" source="LyJyI9hUQbaoJRPsF4Ac-19" target="LyJyI9hUQbaoJRPsF4Ac-1">
          <mxGeometry relative="1" as="geometry" />
        </mxCell>
        <mxCell id="LyJyI9hUQbaoJRPsF4Ac-32" value="1. Получить сообщение о &lt;br&gt;необходимости отправить пачку" style="edgeLabel;html=1;align=center;verticalAlign=middle;resizable=0;points=[];" vertex="1" connectable="0" parent="LyJyI9hUQbaoJRPsF4Ac-31">
          <mxGeometry x="-0.5031" y="1" relative="1" as="geometry">
            <mxPoint as="offset" />
          </mxGeometry>
        </mxCell>
        <object placeholders="1" c4Name="API подсистемы оповещений о событиях" c4Type="ContainerScopeBoundary" c4Application="Container" label="&lt;font style=&quot;font-size: 16px&quot;&gt;&lt;b&gt;&lt;div style=&quot;text-align: left&quot;&gt;%c4Name%&lt;/div&gt;&lt;/b&gt;&lt;/font&gt;&lt;div style=&quot;text-align: left&quot;&gt;[%c4Application%]&lt;/div&gt;" id="LyJyI9hUQbaoJRPsF4Ac-33">
          <mxCell style="rounded=1;fontSize=11;whiteSpace=wrap;html=1;dashed=1;arcSize=20;fillColor=none;strokeColor=#666666;fontColor=#333333;labelBackgroundColor=none;align=left;verticalAlign=bottom;labelBorderColor=none;spacingTop=0;spacing=10;dashPattern=8 4;metaEdit=1;rotatable=0;perimeter=rectanglePerimeter;noLabel=0;labelPadding=0;allowArrows=0;connectable=0;expand=0;recursiveResize=0;editable=1;pointerEvents=0;absoluteArcSize=1;points=[[0.25,0,0],[0.5,0,0],[0.75,0,0],[1,0.25,0],[1,0.5,0],[1,0.75,0],[0.75,1,0],[0.5,1,0],[0.25,1,0],[0,0.75,0],[0,0.5,0],[0,0.25,0]];" vertex="1" parent="1">
            <mxGeometry x="-400" y="20" width="1040" height="1230" as="geometry" />
          </mxCell>
        </object>
        <mxCell id="LyJyI9hUQbaoJRPsF4Ac-38" style="edgeStyle=orthogonalEdgeStyle;rounded=0;orthogonalLoop=1;jettySize=auto;html=1;entryX=0.663;entryY=-0.029;entryDx=0;entryDy=0;entryPerimeter=0;dashed=1;dashPattern=12 12;" edge="1" parent="1" source="LyJyI9hUQbaoJRPsF4Ac-34" target="LyJyI9hUQbaoJRPsF4Ac-36">
          <mxGeometry relative="1" as="geometry">
            <mxPoint x="770" y="1920" as="targetPoint" />
            <Array as="points">
              <mxPoint x="760" y="1760" />
              <mxPoint x="760" y="1927" />
            </Array>
          </mxGeometry>
        </mxCell>
        <mxCell id="LyJyI9hUQbaoJRPsF4Ac-40" value="1. Валидировать сообещние" style="edgeLabel;html=1;align=center;verticalAlign=middle;resizable=0;points=[];" vertex="1" connectable="0" parent="LyJyI9hUQbaoJRPsF4Ac-38">
          <mxGeometry x="0.2341" y="-1" relative="1" as="geometry">
            <mxPoint y="17" as="offset" />
          </mxGeometry>
        </mxCell>
        <mxCell id="LyJyI9hUQbaoJRPsF4Ac-41" style="rounded=0;orthogonalLoop=1;jettySize=auto;html=1;dashed=1;dashPattern=12 12;edgeStyle=orthogonalEdgeStyle;entryX=0.336;entryY=-0.035;entryDx=0;entryDy=0;entryPerimeter=0;" edge="1" parent="1" source="LyJyI9hUQbaoJRPsF4Ac-34" target="LyJyI9hUQbaoJRPsF4Ac-39">
          <mxGeometry relative="1" as="geometry">
            <mxPoint x="370" y="1920" as="targetPoint" />
            <Array as="points">
              <mxPoint x="360" y="1760" />
              <mxPoint x="360" y="1926" />
            </Array>
          </mxGeometry>
        </mxCell>
        <mxCell id="LyJyI9hUQbaoJRPsF4Ac-42" value="2. Отправить сообщение" style="edgeLabel;html=1;align=center;verticalAlign=middle;resizable=0;points=[];" vertex="1" connectable="0" parent="LyJyI9hUQbaoJRPsF4Ac-41">
          <mxGeometry x="0.4018" y="2" relative="1" as="geometry">
            <mxPoint as="offset" />
          </mxGeometry>
        </mxCell>
        <object placeholders="1" c4Name="Consumer слушает топик с сообщениями" c4Type="Component" c4Technology="e.g. Spring Bean" c4Description="Принимает к обработке сообщение, если sms=true и есть номер телефона." label="&lt;font style=&quot;font-size: 16px&quot;&gt;&lt;b&gt;%c4Name%&lt;/b&gt;&lt;/font&gt;&lt;div&gt;[%c4Type%: %c4Technology%]&lt;/div&gt;&lt;br&gt;&lt;div&gt;&lt;font style=&quot;font-size: 11px&quot;&gt;%c4Description%&lt;/font&gt;&lt;/div&gt;" id="LyJyI9hUQbaoJRPsF4Ac-34">
          <mxCell style="rounded=1;whiteSpace=wrap;html=1;labelBackgroundColor=none;fillColor=#63BEF2;fontColor=#ffffff;align=center;arcSize=6;strokeColor=#2086C9;metaEdit=1;resizable=0;points=[[0.25,0,0],[0.5,0,0],[0.75,0,0],[1,0.25,0],[1,0.5,0],[1,0.75,0],[0.75,1,0],[0.5,1,0],[0.25,1,0],[0,0.75,0],[0,0.5,0],[0,0.25,0]];" vertex="1" parent="1">
            <mxGeometry x="440" y="1700" width="240" height="120" as="geometry" />
          </mxCell>
        </object>
        <object placeholders="1" c4Name="SMS адаптер" c4Type="ContainerScopeBoundary" c4Application="Container" label="&lt;font style=&quot;font-size: 16px&quot;&gt;&lt;b&gt;&lt;div style=&quot;text-align: left&quot;&gt;%c4Name%&lt;/div&gt;&lt;/b&gt;&lt;/font&gt;&lt;div style=&quot;text-align: left&quot;&gt;[%c4Application%]&lt;/div&gt;" id="LyJyI9hUQbaoJRPsF4Ac-35">
          <mxCell style="rounded=1;fontSize=11;whiteSpace=wrap;html=1;dashed=1;arcSize=20;fillColor=none;strokeColor=#666666;fontColor=#333333;labelBackgroundColor=none;align=left;verticalAlign=bottom;labelBorderColor=none;spacingTop=0;spacing=10;dashPattern=8 4;metaEdit=1;rotatable=0;perimeter=rectanglePerimeter;noLabel=0;labelPadding=0;allowArrows=0;connectable=0;expand=0;recursiveResize=0;editable=1;pointerEvents=0;absoluteArcSize=1;points=[[0.25,0,0],[0.5,0,0],[0.75,0,0],[1,0.25,0],[1,0.5,0],[1,0.75,0],[0.75,1,0],[0.5,1,0],[0.25,1,0],[0,0.75,0],[0,0.5,0],[0,0.25,0]];" vertex="1" parent="1">
            <mxGeometry x="260" y="1660" width="600" height="440" as="geometry" />
          </mxCell>
        </object>
        <object placeholders="1" c4Name="Валидация текста сообщения" c4Type="Component" c4Technology="e.g. Spring Bean" c4Description="Проверяет, можно ли отправлять это сообщение." label="&lt;font style=&quot;font-size: 16px&quot;&gt;&lt;b&gt;%c4Name%&lt;/b&gt;&lt;/font&gt;&lt;div&gt;[%c4Type%: %c4Technology%]&lt;/div&gt;&lt;br&gt;&lt;div&gt;&lt;font style=&quot;font-size: 11px&quot;&gt;%c4Description%&lt;/font&gt;&lt;/div&gt;" id="LyJyI9hUQbaoJRPsF4Ac-36">
          <mxCell style="rounded=1;whiteSpace=wrap;html=1;labelBackgroundColor=none;fillColor=#63BEF2;fontColor=#ffffff;align=center;arcSize=6;strokeColor=#2086C9;metaEdit=1;resizable=0;points=[[0.25,0,0],[0.5,0,0],[0.75,0,0],[1,0.25,0],[1,0.5,0],[1,0.75,0],[0.75,1,0],[0.5,1,0],[0.25,1,0],[0,0.75,0],[0,0.5,0],[0,0.25,0]];" vertex="1" parent="1">
            <mxGeometry x="600" y="1930" width="240" height="120" as="geometry" />
          </mxCell>
        </object>
        <object placeholders="1" c4Name="Сервис отправки SMS" c4Type="Component" c4Technology="e.g. Spring Bean" c4Description="Отправляет SMS" label="&lt;font style=&quot;font-size: 16px&quot;&gt;&lt;b&gt;%c4Name%&lt;/b&gt;&lt;/font&gt;&lt;div&gt;[%c4Type%: %c4Technology%]&lt;/div&gt;&lt;br&gt;&lt;div&gt;&lt;font style=&quot;font-size: 11px&quot;&gt;%c4Description%&lt;/font&gt;&lt;/div&gt;" id="LyJyI9hUQbaoJRPsF4Ac-39">
          <mxCell style="rounded=1;whiteSpace=wrap;html=1;labelBackgroundColor=none;fillColor=#63BEF2;fontColor=#ffffff;align=center;arcSize=6;strokeColor=#2086C9;metaEdit=1;resizable=0;points=[[0.25,0,0],[0.5,0,0],[0.75,0,0],[1,0.25,0],[1,0.5,0],[1,0.75,0],[0.75,1,0],[0.5,1,0],[0.25,1,0],[0,0.75,0],[0,0.5,0],[0,0.25,0]];" vertex="1" parent="1">
            <mxGeometry x="280" y="1930" width="240" height="120" as="geometry" />
          </mxCell>
        </object>
        <mxCell id="LyJyI9hUQbaoJRPsF4Ac-45" style="edgeStyle=orthogonalEdgeStyle;rounded=0;orthogonalLoop=1;jettySize=auto;html=1;dashed=1;dashPattern=12 12;" edge="1" parent="1" source="LyJyI9hUQbaoJRPsF4Ac-43" target="LyJyI9hUQbaoJRPsF4Ac-44">
          <mxGeometry relative="1" as="geometry" />
        </mxCell>
        <mxCell id="LyJyI9hUQbaoJRPsF4Ac-46" value="Отправить Push" style="edgeLabel;html=1;align=center;verticalAlign=middle;resizable=0;points=[];" vertex="1" connectable="0" parent="LyJyI9hUQbaoJRPsF4Ac-45">
          <mxGeometry x="-0.1517" y="-2" relative="1" as="geometry">
            <mxPoint as="offset" />
          </mxGeometry>
        </mxCell>
        <object placeholders="1" c4Name="Consumer слушает топик с сообщениями" c4Type="Component" c4Technology="e.g. Spring Bean" c4Description="Принимает к обработке сообщение, если push=true и есть id пользователя." label="&lt;font style=&quot;font-size: 16px&quot;&gt;&lt;b&gt;%c4Name%&lt;/b&gt;&lt;/font&gt;&lt;div&gt;[%c4Type%: %c4Technology%]&lt;/div&gt;&lt;br&gt;&lt;div&gt;&lt;font style=&quot;font-size: 11px&quot;&gt;%c4Description%&lt;/font&gt;&lt;/div&gt;" id="LyJyI9hUQbaoJRPsF4Ac-43">
          <mxCell style="rounded=1;whiteSpace=wrap;html=1;labelBackgroundColor=none;fillColor=#63BEF2;fontColor=#ffffff;align=center;arcSize=6;strokeColor=#2086C9;metaEdit=1;resizable=0;points=[[0.25,0,0],[0.5,0,0],[0.75,0,0],[1,0.25,0],[1,0.5,0],[1,0.75,0],[0.75,1,0],[0.5,1,0],[0.25,1,0],[0,0.75,0],[0,0.5,0],[0,0.25,0]];" vertex="1" parent="1">
            <mxGeometry x="1080" y="1694" width="240" height="120" as="geometry" />
          </mxCell>
        </object>
        <object placeholders="1" c4Name="Сервис отправки Push" c4Type="Component" c4Technology="e.g. Spring Bean" c4Description="Отправляет Push" label="&lt;font style=&quot;font-size: 16px&quot;&gt;&lt;b&gt;%c4Name%&lt;/b&gt;&lt;/font&gt;&lt;div&gt;[%c4Type%: %c4Technology%]&lt;/div&gt;&lt;br&gt;&lt;div&gt;&lt;font style=&quot;font-size: 11px&quot;&gt;%c4Description%&lt;/font&gt;&lt;/div&gt;" id="LyJyI9hUQbaoJRPsF4Ac-44">
          <mxCell style="rounded=1;whiteSpace=wrap;html=1;labelBackgroundColor=none;fillColor=#63BEF2;fontColor=#ffffff;align=center;arcSize=6;strokeColor=#2086C9;metaEdit=1;resizable=0;points=[[0.25,0,0],[0.5,0,0],[0.75,0,0],[1,0.25,0],[1,0.5,0],[1,0.75,0],[0.75,1,0],[0.5,1,0],[0.25,1,0],[0,0.75,0],[0,0.5,0],[0,0.25,0]];" vertex="1" parent="1">
            <mxGeometry x="1080" y="1930" width="240" height="120" as="geometry" />
          </mxCell>
        </object>
        <object placeholders="1" c4Name="Push адаптер" c4Type="ContainerScopeBoundary" c4Application="Container" label="&lt;font style=&quot;font-size: 16px&quot;&gt;&lt;b&gt;&lt;div style=&quot;text-align: left&quot;&gt;%c4Name%&lt;/div&gt;&lt;/b&gt;&lt;/font&gt;&lt;div style=&quot;text-align: left&quot;&gt;[%c4Application%]&lt;/div&gt;" id="LyJyI9hUQbaoJRPsF4Ac-47">
          <mxCell style="rounded=1;fontSize=11;whiteSpace=wrap;html=1;dashed=1;arcSize=20;fillColor=none;strokeColor=#666666;fontColor=#333333;labelBackgroundColor=none;align=left;verticalAlign=bottom;labelBorderColor=none;spacingTop=0;spacing=10;dashPattern=8 4;metaEdit=1;rotatable=0;perimeter=rectanglePerimeter;noLabel=0;labelPadding=0;allowArrows=0;connectable=0;expand=0;recursiveResize=0;editable=1;pointerEvents=0;absoluteArcSize=1;points=[[0.25,0,0],[0.5,0,0],[0.75,0,0],[1,0.25,0],[1,0.5,0],[1,0.75,0],[0.75,1,0],[0.5,1,0],[0.25,1,0],[0,0.75,0],[0,0.5,0],[0,0.25,0]];" vertex="1" parent="1">
            <mxGeometry x="920" y="1660" width="560" height="440" as="geometry" />
          </mxCell>
        </object>
        <mxCell id="LyJyI9hUQbaoJRPsF4Ac-50" style="edgeStyle=orthogonalEdgeStyle;rounded=0;orthogonalLoop=1;jettySize=auto;html=1;dashed=1;dashPattern=12 12;" edge="1" parent="1" source="LyJyI9hUQbaoJRPsF4Ac-48" target="LyJyI9hUQbaoJRPsF4Ac-49">
          <mxGeometry relative="1" as="geometry" />
        </mxCell>
        <mxCell id="LyJyI9hUQbaoJRPsF4Ac-51" value="Отправить Email" style="edgeLabel;html=1;align=center;verticalAlign=middle;resizable=0;points=[];" vertex="1" connectable="0" parent="LyJyI9hUQbaoJRPsF4Ac-50">
          <mxGeometry x="-0.2063" relative="1" as="geometry">
            <mxPoint as="offset" />
          </mxGeometry>
        </mxCell>
        <object placeholders="1" c4Name="Consumer слушает топик с сообщениями" c4Type="Component" c4Technology="e.g. Spring Bean" c4Description="Принимает к обработке сообщение, если email=true и есть email адрес для отправки." label="&lt;font style=&quot;font-size: 16px&quot;&gt;&lt;b&gt;%c4Name%&lt;/b&gt;&lt;/font&gt;&lt;div&gt;[%c4Type%: %c4Technology%]&lt;/div&gt;&lt;br&gt;&lt;div&gt;&lt;font style=&quot;font-size: 11px&quot;&gt;%c4Description%&lt;/font&gt;&lt;/div&gt;" id="LyJyI9hUQbaoJRPsF4Ac-48">
          <mxCell style="rounded=1;whiteSpace=wrap;html=1;labelBackgroundColor=none;fillColor=#63BEF2;fontColor=#ffffff;align=center;arcSize=6;strokeColor=#2086C9;metaEdit=1;resizable=0;points=[[0.25,0,0],[0.5,0,0],[0.75,0,0],[1,0.25,0],[1,0.5,0],[1,0.75,0],[0.75,1,0],[0.5,1,0],[0.25,1,0],[0,0.75,0],[0,0.5,0],[0,0.25,0]];" vertex="1" parent="1">
            <mxGeometry x="-200" y="1700" width="240" height="120" as="geometry" />
          </mxCell>
        </object>
        <object placeholders="1" c4Name="Сервис отправки Email" c4Type="Component" c4Technology="e.g. Spring Bean" c4Description="Отправляет Email" label="&lt;font style=&quot;font-size: 16px&quot;&gt;&lt;b&gt;%c4Name%&lt;/b&gt;&lt;/font&gt;&lt;div&gt;[%c4Type%: %c4Technology%]&lt;/div&gt;&lt;br&gt;&lt;div&gt;&lt;font style=&quot;font-size: 11px&quot;&gt;%c4Description%&lt;/font&gt;&lt;/div&gt;" id="LyJyI9hUQbaoJRPsF4Ac-49">
          <mxCell style="rounded=1;whiteSpace=wrap;html=1;labelBackgroundColor=none;fillColor=#63BEF2;fontColor=#ffffff;align=center;arcSize=6;strokeColor=#2086C9;metaEdit=1;resizable=0;points=[[0.25,0,0],[0.5,0,0],[0.75,0,0],[1,0.25,0],[1,0.5,0],[1,0.75,0],[0.75,1,0],[0.5,1,0],[0.25,1,0],[0,0.75,0],[0,0.5,0],[0,0.25,0]];" vertex="1" parent="1">
            <mxGeometry x="-200" y="1930" width="240" height="120" as="geometry" />
          </mxCell>
        </object>
        <object placeholders="1" c4Name="Email адаптер" c4Type="ContainerScopeBoundary" c4Application="Container" label="&lt;font style=&quot;font-size: 16px&quot;&gt;&lt;b&gt;&lt;div style=&quot;text-align: left&quot;&gt;%c4Name%&lt;/div&gt;&lt;/b&gt;&lt;/font&gt;&lt;div style=&quot;text-align: left&quot;&gt;[%c4Application%]&lt;/div&gt;" id="LyJyI9hUQbaoJRPsF4Ac-52">
          <mxCell style="rounded=1;fontSize=11;whiteSpace=wrap;html=1;dashed=1;arcSize=20;fillColor=none;strokeColor=#666666;fontColor=#333333;labelBackgroundColor=none;align=left;verticalAlign=bottom;labelBorderColor=none;spacingTop=0;spacing=10;dashPattern=8 4;metaEdit=1;rotatable=0;perimeter=rectanglePerimeter;noLabel=0;labelPadding=0;allowArrows=0;connectable=0;expand=0;recursiveResize=0;editable=1;pointerEvents=0;absoluteArcSize=1;points=[[0.25,0,0],[0.5,0,0],[0.75,0,0],[1,0.25,0],[1,0.5,0],[1,0.75,0],[0.75,1,0],[0.5,1,0],[0.25,1,0],[0,0.75,0],[0,0.5,0],[0,0.25,0]];" vertex="1" parent="1">
            <mxGeometry x="-360" y="1660" width="560" height="440" as="geometry" />
          </mxCell>
        </object>
        <object placeholders="1" c4Name="Пользователи" c4Type="Person" c4Description="Получятели оповещений" label="&lt;font style=&quot;font-size: 16px&quot;&gt;&lt;b&gt;%c4Name%&lt;/b&gt;&lt;/font&gt;&lt;div&gt;[%c4Type%]&lt;/div&gt;&lt;br&gt;&lt;div&gt;&lt;font style=&quot;font-size: 11px&quot;&gt;&lt;font color=&quot;#cccccc&quot;&gt;%c4Description%&lt;/font&gt;&lt;/div&gt;" id="LyJyI9hUQbaoJRPsF4Ac-53">
          <mxCell style="html=1;fontSize=11;dashed=0;whiteSpace=wrap;fillColor=#083F75;strokeColor=#06315C;fontColor=#ffffff;shape=mxgraph.c4.person2;align=center;metaEdit=1;points=[[0.5,0,0],[1,0.5,0],[1,0.75,0],[0.75,1,0],[0.5,1,0],[0.25,1,0],[0,0.75,0],[0,0.5,0]];resizable=0;" vertex="1" parent="1">
            <mxGeometry x="470" y="2220" width="200" height="180" as="geometry" />
          </mxCell>
        </object>
        <mxCell id="LyJyI9hUQbaoJRPsF4Ac-54" style="rounded=0;orthogonalLoop=1;jettySize=auto;html=1;dashed=1;dashPattern=12 12;entryX=0.961;entryY=0.468;entryDx=0;entryDy=0;entryPerimeter=0;exitX=0;exitY=0.75;exitDx=0;exitDy=0;exitPerimeter=0;" edge="1" parent="1" source="LyJyI9hUQbaoJRPsF4Ac-44" target="LyJyI9hUQbaoJRPsF4Ac-53">
          <mxGeometry relative="1" as="geometry">
            <mxPoint x="944" y="2030" as="sourcePoint" />
            <mxPoint x="670" y="2316" as="targetPoint" />
          </mxGeometry>
        </mxCell>
        <mxCell id="LyJyI9hUQbaoJRPsF4Ac-55" value="Отправляет Push уведомление" style="edgeLabel;html=1;align=center;verticalAlign=middle;resizable=0;points=[];" vertex="1" connectable="0" parent="LyJyI9hUQbaoJRPsF4Ac-54">
          <mxGeometry x="-0.0898" y="-2" relative="1" as="geometry">
            <mxPoint as="offset" />
          </mxGeometry>
        </mxCell>
        <mxCell id="LyJyI9hUQbaoJRPsF4Ac-56" style="rounded=0;orthogonalLoop=1;jettySize=auto;html=1;dashed=1;dashPattern=12 12;entryX=0.087;entryY=0.368;entryDx=0;entryDy=0;entryPerimeter=0;exitX=0.447;exitY=1.004;exitDx=0;exitDy=0;exitPerimeter=0;" edge="1" parent="1" source="LyJyI9hUQbaoJRPsF4Ac-39" target="LyJyI9hUQbaoJRPsF4Ac-53">
          <mxGeometry relative="1" as="geometry">
            <mxPoint x="390" y="2110" as="sourcePoint" />
            <mxPoint x="395" y="2367" as="targetPoint" />
          </mxGeometry>
        </mxCell>
        <mxCell id="LyJyI9hUQbaoJRPsF4Ac-57" value="Отправляет SMS уведомление" style="edgeLabel;html=1;align=center;verticalAlign=middle;resizable=0;points=[];" vertex="1" connectable="0" parent="LyJyI9hUQbaoJRPsF4Ac-56">
          <mxGeometry x="-0.0898" y="-2" relative="1" as="geometry">
            <mxPoint as="offset" />
          </mxGeometry>
        </mxCell>
        <mxCell id="LyJyI9hUQbaoJRPsF4Ac-58" style="rounded=0;orthogonalLoop=1;jettySize=auto;html=1;dashed=1;dashPattern=12 12;entryX=-0.003;entryY=0.579;entryDx=0;entryDy=0;entryPerimeter=0;exitX=0.439;exitY=1.013;exitDx=0;exitDy=0;exitPerimeter=0;" edge="1" parent="1" source="LyJyI9hUQbaoJRPsF4Ac-49" target="LyJyI9hUQbaoJRPsF4Ac-53">
          <mxGeometry relative="1" as="geometry">
            <mxPoint x="31" y="2130" as="sourcePoint" />
            <mxPoint x="360" y="2418" as="targetPoint" />
          </mxGeometry>
        </mxCell>
        <mxCell id="LyJyI9hUQbaoJRPsF4Ac-59" value="Отправляет Email уведомление" style="edgeLabel;html=1;align=center;verticalAlign=middle;resizable=0;points=[];" vertex="1" connectable="0" parent="LyJyI9hUQbaoJRPsF4Ac-58">
          <mxGeometry x="-0.0898" y="-2" relative="1" as="geometry">
            <mxPoint as="offset" />
          </mxGeometry>
        </mxCell>
      </root>
    </mxGraphModel>
  </diagram>
</mxfile>
